<?xml version="1.0" encoding="UTF-8" ?>
<!DOCTYPE svg PUBLIC "-//W3C//DTD SVG 1.1//EN" "http://www.w3.org/Graphics/SVG/1.1/DTD/svg11.dtd">
<svg width="500pt" height="700pt" viewBox="0 0 500 700" version="1.1" xmlns="http://www.w3.org/2000/svg">
<g id="#1c1c1cff">
<path fill="#1c1c1c" opacity="1.00" d=" M 0.00 0.00 L 0.25 0.00 C 0.19 0.06 0.06 0.19 0.00 0.25 L 0.00 0.00 Z" />
<path fill="#1c1c1c" opacity="1.00" d=" M 276.74 39.87 C 280.83 36.27 286.02 34.22 291.17 32.65 C 294.72 32.16 292.70 37.36 293.79 39.31 C 296.37 45.57 294.49 52.44 296.52 58.78 C 303.07 59.19 309.46 57.38 316.00 57.90 C 324.66 57.42 333.12 59.87 341.78 59.73 C 345.30 59.95 348.06 62.32 351.19 63.63 C 354.54 64.01 357.93 63.98 361.30 63.75 C 363.44 62.73 364.78 60.58 366.75 59.26 C 370.86 55.95 376.41 55.22 380.40 51.72 C 382.09 50.23 384.22 49.48 386.40 49.00 C 391.14 47.98 394.60 44.12 399.28 42.92 C 405.86 44.18 412.61 47.07 416.59 52.70 C 419.32 58.10 419.26 64.34 420.83 70.09 C 422.57 76.26 423.48 82.63 423.47 89.03 C 424.38 93.08 424.39 97.25 425.37 101.29 C 426.73 109.17 429.41 116.86 429.40 124.93 C 429.83 131.44 432.49 137.65 432.45 144.22 C 432.70 148.97 434.37 153.55 434.43 158.32 C 434.42 164.08 437.88 169.34 437.23 175.18 C 437.48 177.93 436.37 181.22 437.99 183.58 C 440.83 185.04 443.86 186.07 446.82 187.25 C 450.76 188.81 455.21 188.57 459.08 190.31 C 460.39 191.70 461.06 193.76 461.33 195.63 C 459.97 198.41 457.24 200.29 455.21 202.59 C 450.70 197.92 443.94 199.36 438.12 199.33 C 432.05 204.53 432.90 212.87 433.30 220.01 C 438.55 221.05 444.20 220.42 449.19 222.73 C 450.19 225.29 451.01 228.32 450.02 230.98 C 446.96 232.54 442.61 233.76 439.98 230.81 C 435.77 226.48 429.31 226.60 423.71 226.01 C 421.09 229.86 418.55 233.80 416.84 238.15 C 414.51 244.16 409.01 248.01 405.51 253.25 C 403.72 255.44 404.33 258.48 404.11 261.10 C 404.32 276.08 404.03 291.06 404.40 306.04 C 404.31 320.69 403.85 335.35 404.47 349.99 C 406.01 357.62 407.52 365.32 407.39 373.14 C 409.14 384.60 407.27 396.35 409.47 407.79 C 410.61 413.22 410.00 418.83 411.28 424.24 C 411.24 429.07 412.53 433.74 413.26 438.48 C 413.47 443.43 414.58 448.26 415.20 453.17 C 415.46 456.71 414.96 460.35 415.91 463.83 C 417.54 469.43 417.94 475.26 418.72 481.02 C 420.79 491.58 421.80 502.29 422.68 512.98 C 424.15 520.63 423.36 528.75 426.35 536.08 C 429.74 542.98 435.28 548.63 438.36 555.71 C 440.57 561.05 443.53 566.30 443.57 572.25 C 445.23 578.82 443.98 586.16 440.11 591.75 C 438.40 594.49 437.55 597.69 435.79 600.41 C 430.66 607.30 424.85 614.07 416.86 617.70 C 410.76 620.17 405.02 623.47 398.86 625.80 C 393.11 627.85 386.97 627.09 381.00 627.17 C 374.95 627.18 368.89 627.07 362.84 627.22 C 358.03 627.01 353.72 629.76 348.90 629.63 C 337.97 631.91 326.83 633.05 315.70 633.57 C 311.16 634.79 306.38 633.98 301.83 635.19 C 297.21 635.39 292.55 635.15 288.00 636.16 C 273.34 636.08 258.66 636.22 244.00 636.10 C 239.13 634.98 234.11 635.33 229.15 635.23 C 219.35 633.74 209.21 633.70 199.71 630.52 C 191.62 629.66 183.14 630.05 175.57 626.59 C 167.07 625.73 158.46 626.34 149.92 626.25 C 144.75 626.01 139.99 628.74 134.82 628.36 C 131.37 628.26 127.91 628.46 124.47 628.27 C 120.05 627.56 116.66 624.43 112.80 622.46 C 103.22 620.70 94.29 625.43 85.13 627.25 C 77.84 626.68 71.18 630.25 63.94 630.40 C 59.20 630.27 54.60 631.59 49.86 631.47 C 41.14 632.16 33.01 636.49 24.18 636.38 C 18.44 634.93 12.00 633.81 7.87 629.15 C 4.60 626.20 3.20 621.95 1.49 618.04 C 2.88 615.16 3.64 611.98 5.42 609.30 C 11.17 602.43 19.41 598.49 27.37 594.76 C 32.20 592.78 36.62 589.95 41.42 587.89 C 46.60 585.72 51.26 582.04 57.06 581.68 C 61.52 581.62 65.71 580.03 69.80 578.41 C 74.47 576.50 79.92 577.43 84.28 574.68 C 88.31 572.42 91.93 569.51 95.92 567.17 C 98.17 565.61 100.85 564.50 102.62 562.36 C 102.72 559.80 103.31 556.85 101.49 554.74 C 98.88 551.16 97.82 546.78 95.53 543.03 C 92.19 537.47 93.12 530.73 91.77 524.64 C 91.83 518.64 90.74 512.75 89.82 506.86 C 89.69 496.38 89.14 485.84 91.42 475.54 C 91.68 469.42 92.12 463.31 93.38 457.31 C 94.04 452.73 93.46 448.10 93.71 443.51 C 94.87 437.86 94.49 431.95 96.62 426.49 C 99.31 420.13 99.15 413.12 100.39 406.43 C 100.88 401.39 102.99 396.73 104.17 391.86 C 105.41 381.40 107.23 370.96 109.63 360.70 C 110.35 354.47 108.98 348.14 110.32 341.97 C 110.88 337.18 113.56 333.03 114.84 328.44 C 116.22 324.99 114.84 321.08 116.35 317.68 C 117.42 314.73 119.33 312.18 120.49 309.28 C 120.74 307.00 120.56 304.71 120.77 302.44 C 121.69 297.91 124.35 294.02 125.80 289.67 C 127.22 286.58 125.90 282.97 127.43 279.92 C 128.47 277.54 130.05 275.44 131.22 273.12 C 132.05 269.39 132.07 265.43 133.62 261.89 C 136.87 254.69 141.37 248.07 143.86 240.54 C 145.29 236.17 148.22 232.42 149.14 227.86 C 149.81 223.09 154.33 220.45 156.24 216.28 C 159.25 211.30 160.03 205.32 163.27 200.47 C 165.32 197.17 165.87 193.23 167.67 189.81 C 169.99 185.33 171.40 180.44 173.80 176.00 C 177.21 169.64 179.77 162.89 182.34 156.17 C 185.21 150.73 187.28 144.91 190.31 139.56 C 192.43 135.71 194.13 131.47 197.41 128.43 C 199.84 126.13 202.48 124.04 204.67 121.50 C 216.07 107.36 226.79 92.56 240.05 80.04 C 244.64 74.79 251.21 71.72 255.46 66.15 C 258.17 62.80 260.76 59.35 263.31 55.87 C 265.58 52.88 266.08 48.97 268.20 45.91 C 270.69 43.43 274.09 42.15 276.74 39.87 M 278.63 48.55 C 275.61 51.26 273.18 54.56 270.19 57.31 C 267.02 59.95 267.12 64.44 264.97 67.73 C 261.03 74.18 256.78 81.17 249.57 84.36 C 244.88 86.45 242.05 90.96 238.47 94.42 C 230.81 102.13 224.43 110.95 217.62 119.39 C 214.30 123.22 209.65 125.98 207.53 130.76 C 204.79 136.49 200.07 140.92 197.27 146.60 C 193.36 154.63 189.64 162.74 185.83 170.81 C 182.55 181.33 176.25 190.59 172.83 201.06 C 171.60 204.57 169.14 207.50 168.05 211.06 C 167.12 213.61 166.67 216.40 164.94 218.57 C 161.27 223.27 157.60 228.26 156.22 234.17 C 154.91 239.63 151.27 244.26 150.59 249.91 C 150.27 253.16 148.89 256.51 149.61 259.75 C 153.19 263.85 158.44 266.32 161.24 271.17 C 164.41 276.69 168.16 281.99 170.08 288.12 C 171.02 291.31 170.60 294.70 170.71 297.99 C 170.47 303.48 171.42 309.25 169.01 314.42 C 165.26 325.77 155.82 333.78 146.68 340.86 C 143.09 342.97 139.45 345.94 135.05 345.61 C 131.22 345.43 127.38 346.27 123.92 347.89 C 120.68 353.62 120.70 360.44 118.61 366.58 C 116.12 374.16 115.16 382.09 114.35 389.99 C 112.60 397.63 110.29 405.20 109.64 413.05 C 109.63 418.10 108.46 423.03 108.34 428.08 C 105.49 438.56 105.02 449.43 103.71 460.14 C 103.66 463.78 103.81 467.47 102.90 471.03 C 102.34 478.36 103.16 485.77 102.29 493.09 C 101.06 497.31 102.04 501.75 103.30 505.84 C 102.49 507.81 101.33 509.81 101.63 512.04 C 102.15 517.82 103.95 523.41 104.36 529.21 C 104.53 535.75 105.42 542.25 106.33 548.72 C 106.66 551.77 108.78 555.02 111.99 555.46 C 114.77 555.90 115.33 552.33 116.96 550.77 C 119.74 546.23 127.72 546.25 127.76 539.95 C 129.76 539.25 131.76 538.53 133.86 538.19 C 133.65 540.44 134.09 542.87 133.28 545.03 C 130.61 547.83 127.47 550.12 124.61 552.71 C 121.21 556.01 118.95 560.26 115.65 563.65 C 112.67 566.87 107.80 567.44 105.10 571.01 C 100.63 576.08 94.69 579.40 88.60 582.13 C 82.86 585.74 75.92 586.05 69.79 588.67 C 65.68 590.03 61.32 590.50 57.01 590.65 C 52.01 590.82 48.63 595.11 43.96 596.30 C 39.18 597.37 35.53 600.89 30.93 602.38 C 24.22 604.66 18.79 609.46 12.48 612.48 C 9.88 614.09 9.66 618.03 12.05 619.92 C 15.45 622.74 19.65 624.79 24.02 625.54 C 30.93 625.78 37.35 622.67 44.04 621.44 C 48.18 620.83 52.43 622.29 56.49 621.00 C 59.94 619.97 63.44 619.14 67.00 618.66 C 73.78 617.80 79.99 613.94 86.98 614.62 C 93.89 615.42 100.14 612.07 106.28 609.46 C 117.87 604.39 128.00 596.67 138.24 589.39 C 142.04 587.05 146.56 585.98 149.96 582.99 C 153.91 579.45 159.09 577.61 162.74 573.71 C 165.24 571.08 168.52 568.31 172.42 569.66 C 174.13 570.53 177.55 571.86 176.18 574.31 C 170.96 581.61 161.46 584.43 156.66 592.12 C 160.23 596.48 166.19 595.99 170.89 598.27 C 172.69 598.81 174.81 600.47 176.56 598.92 C 180.71 596.05 183.90 592.04 187.70 588.75 C 192.03 584.66 197.02 581.35 202.03 578.17 C 204.68 576.37 207.96 576.48 211.01 576.39 C 214.61 576.36 218.23 575.48 221.80 576.32 C 228.12 577.03 232.88 581.75 238.85 583.48 C 243.73 585.15 248.95 584.41 254.00 584.57 C 266.93 585.00 279.70 582.38 292.25 579.61 C 301.56 577.50 311.16 579.18 320.54 577.85 C 325.20 577.32 329.95 577.85 334.54 576.74 C 340.02 575.47 345.47 573.88 351.12 573.57 C 355.75 573.22 361.17 572.83 364.00 568.55 C 365.62 568.40 367.24 568.29 368.87 568.24 C 368.87 570.45 368.99 572.69 368.66 574.90 C 365.47 577.20 361.96 579.15 358.18 580.26 C 349.90 581.29 342.06 584.35 333.76 585.26 C 318.24 586.45 302.76 588.27 287.32 590.48 C 281.34 590.44 275.67 592.92 269.67 592.66 C 258.70 592.72 247.70 593.17 236.74 592.58 C 229.98 590.74 225.21 584.42 218.02 583.63 C 211.17 583.67 205.46 587.80 199.60 590.78 C 197.85 591.89 195.20 592.77 194.59 594.88 C 193.12 595.57 191.62 596.30 190.44 597.45 C 186.26 601.50 181.67 605.67 180.08 611.50 C 179.03 613.53 180.47 615.69 181.89 617.11 C 184.92 619.77 189.23 619.44 192.99 619.47 C 201.31 619.22 209.53 620.75 217.80 621.51 C 221.72 621.78 225.67 621.35 229.58 621.93 C 239.68 623.50 249.96 621.66 260.05 623.39 C 279.02 623.74 298.02 623.50 317.00 623.52 C 322.69 623.62 328.28 622.23 333.98 622.40 C 341.00 622.65 347.38 619.30 354.20 618.27 C 359.21 617.27 364.37 617.55 369.40 616.60 C 375.06 615.90 380.45 613.64 386.17 613.43 C 390.39 613.11 393.96 615.78 397.96 616.59 C 401.88 614.63 405.36 611.81 409.63 610.54 C 417.15 606.63 423.87 600.85 428.22 593.49 C 428.27 593.44 428.36 593.34 428.40 593.28 C 429.57 589.96 431.63 587.09 433.18 583.96 C 435.20 579.97 434.29 575.37 434.30 571.09 C 433.97 565.32 430.76 560.44 428.62 555.25 C 426.99 551.24 423.46 548.52 420.35 545.71 C 416.22 542.58 412.47 538.80 407.70 536.66 C 403.26 535.00 398.51 534.29 394.21 532.23 C 386.92 528.64 378.25 530.24 371.13 526.19 C 367.62 524.25 366.80 520.03 365.88 516.48 C 364.69 510.64 361.90 505.23 361.24 499.28 C 360.26 492.49 356.49 486.46 355.90 479.58 C 355.01 469.35 352.08 459.46 349.76 449.49 C 348.58 441.57 347.86 433.55 345.63 425.83 C 344.47 420.94 342.29 416.23 342.37 411.13 C 341.48 402.76 338.69 394.77 336.62 386.66 C 336.52 382.33 335.95 378.04 334.52 373.95 C 332.67 368.80 331.90 363.37 330.40 358.12 C 327.91 350.91 327.69 342.90 328.82 335.47 C 331.18 335.27 333.55 335.14 335.91 335.39 C 337.64 341.66 339.83 347.79 341.98 353.94 C 338.85 358.89 341.83 364.44 343.60 369.27 C 345.76 373.91 345.51 379.13 346.72 384.01 C 348.08 390.08 351.45 395.68 351.50 402.03 C 351.71 408.90 353.41 415.63 355.70 422.08 C 358.08 428.69 357.95 435.82 358.95 442.69 C 359.56 446.73 361.07 450.55 362.40 454.39 C 364.73 460.47 362.37 467.19 364.46 473.34 C 366.93 481.07 369.06 488.95 369.50 497.10 C 369.44 501.64 372.88 504.99 374.21 509.09 C 373.61 513.62 372.80 518.45 375.59 522.49 C 383.81 520.42 392.75 521.20 400.46 524.76 C 404.25 526.52 408.30 527.78 412.53 527.75 C 412.84 521.46 412.22 515.21 411.52 508.98 C 411.83 499.17 409.83 489.49 407.35 480.05 C 404.12 467.28 406.08 454.03 405.22 441.04 C 405.12 438.53 403.91 436.30 402.10 434.62 C 402.82 432.19 401.64 429.83 401.49 427.43 C 401.09 423.28 401.60 419.09 401.05 414.97 C 399.57 408.58 400.77 401.97 400.10 395.51 C 398.42 388.81 400.14 381.81 398.71 375.09 C 397.98 366.53 396.41 358.06 395.42 349.54 C 395.07 327.02 395.40 304.51 395.23 281.99 C 393.83 273.44 394.22 264.64 394.56 256.01 C 396.91 250.22 399.04 244.07 403.32 239.36 C 406.92 235.14 409.05 229.97 411.91 225.27 C 413.75 222.22 417.76 221.21 419.21 217.85 C 420.76 214.79 422.54 211.77 423.39 208.41 C 425.18 200.30 428.58 192.38 428.24 183.94 C 427.31 180.07 427.32 176.09 427.28 172.14 C 426.39 164.12 424.04 156.32 423.47 148.27 C 423.53 143.31 422.41 138.44 421.43 133.61 C 420.94 130.50 418.01 128.82 416.05 126.68 C 411.42 134.79 403.10 141.04 393.61 141.65 C 383.32 141.81 373.00 142.01 362.71 141.48 C 357.28 140.21 352.16 137.85 347.03 135.68 C 341.01 133.28 336.21 128.76 331.45 124.51 C 325.71 117.97 321.20 110.09 319.45 101.52 C 319.06 92.96 319.23 84.37 319.30 75.80 C 318.70 72.05 316.10 67.86 311.89 67.71 C 307.27 67.72 302.73 66.79 298.18 66.32 C 294.58 63.59 288.77 62.25 288.43 56.92 C 288.29 52.39 288.78 47.75 286.69 43.55 C 283.92 45.08 280.98 46.39 278.63 48.55 M 402.30 62.18 C 404.08 65.55 405.45 71.17 409.94 71.39 C 410.47 68.44 411.62 65.37 411.03 62.37 C 409.82 61.28 408.48 60.36 407.18 59.40 C 405.56 60.35 403.93 61.27 402.30 62.18 M 140.37 597.39 C 137.38 598.91 135.34 601.80 132.37 603.36 C 128.31 605.60 123.32 606.95 120.78 611.16 C 121.09 613.58 121.79 617.53 124.97 617.37 C 129.75 617.52 134.26 619.52 139.03 619.53 C 145.97 618.88 151.93 613.93 159.06 614.35 C 163.68 614.38 169.92 614.82 172.30 609.86 C 172.49 607.33 171.00 604.16 168.17 603.99 C 163.96 603.13 159.31 603.12 155.86 600.21 C 151.60 596.74 145.55 595.48 140.37 597.39 Z" />
<path fill="#1c1c1c" opacity="1.00" d=" M 287.36 397.22 C 292.15 397.28 296.98 396.95 301.74 397.56 C 305.80 399.99 309.91 402.58 313.16 406.07 C 315.91 410.11 317.62 414.91 318.55 419.69 C 318.91 432.95 319.06 446.27 318.45 459.53 C 315.31 467.79 311.73 476.00 306.46 483.17 C 302.77 487.96 299.76 493.46 294.65 496.94 C 289.11 501.67 281.91 503.49 275.05 505.33 C 270.34 505.38 265.81 506.87 261.10 506.72 C 252.83 506.79 244.56 506.92 236.30 506.62 C 234.03 506.70 232.05 505.50 230.08 504.57 C 222.42 500.56 214.16 497.19 208.00 490.92 C 205.39 487.74 202.83 484.33 201.47 480.42 C 201.03 471.89 201.11 463.31 201.51 454.79 C 204.65 445.72 210.11 436.87 218.61 431.95 C 223.46 430.09 228.49 428.06 233.79 428.28 C 239.52 428.08 245.26 428.38 250.99 428.27 C 255.54 427.32 258.93 423.59 260.70 419.45 C 263.32 413.32 265.32 406.70 269.68 401.52 C 274.51 397.06 281.19 396.99 287.36 397.22 Z" />
</g>
<g id="#fefeffff">
<path fill="#fefeff" opacity="1.00" d=" M 278.63 48.55 C 280.98 46.39 283.92 45.08 286.69 43.55 C 288.78 47.75 288.29 52.39 288.43 56.92 C 288.77 62.25 294.58 63.59 298.18 66.32 C 302.73 66.79 307.27 67.72 311.89 67.71 C 316.10 67.86 318.70 72.05 319.30 75.80 C 319.23 84.37 319.06 92.96 319.45 101.52 C 321.20 110.09 325.71 117.97 331.45 124.51 C 336.21 128.76 341.01 133.28 347.03 135.68 C 352.16 137.85 357.28 140.21 362.71 141.48 C 373.00 142.01 383.32 141.81 393.61 141.65 C 403.10 141.04 411.42 134.79 416.05 126.68 C 418.01 128.82 420.94 130.50 421.43 133.61 C 422.41 138.44 423.53 143.31 423.47 148.27 C 424.04 156.32 426.39 164.12 427.28 172.14 C 427.32 176.09 427.31 180.07 428.24 183.94 C 428.58 192.38 425.18 200.30 423.39 208.41 C 422.54 211.77 420.76 214.79 419.21 217.85 C 417.76 221.21 413.75 222.22 411.91 225.27 C 409.05 229.97 406.92 235.14 403.32 239.36 C 399.04 244.07 396.91 250.22 394.56 256.01 C 394.22 264.64 393.83 273.44 395.23 281.99 C 395.40 304.51 395.07 327.02 395.42 349.54 C 396.41 358.06 397.98 366.53 398.71 375.09 C 400.14 381.81 398.42 388.81 400.10 395.51 C 400.77 401.97 399.57 408.58 401.05 414.97 C 401.60 419.09 401.09 423.28 401.49 427.43 C 401.64 429.83 402.82 432.19 402.10 434.62 C 400.29 444.37 402.31 454.35 400.98 464.16 C 400.39 471.57 396.97 478.28 393.75 484.83 C 391.83 488.37 389.86 492.25 386.28 494.37 C 383.02 495.65 380.66 492.06 379.87 489.38 C 378.09 483.04 377.39 476.40 374.81 470.29 C 371.77 463.30 371.67 455.48 368.66 448.49 C 365.42 440.91 366.08 432.43 363.47 424.67 C 358.66 409.11 356.57 392.80 350.88 377.50 C 349.51 373.05 348.96 368.38 347.24 364.04 C 345.84 360.50 343.80 357.27 341.98 353.94 C 339.83 347.79 337.64 341.66 335.91 335.39 C 333.55 335.14 331.18 335.27 328.82 335.47 C 327.69 342.90 327.91 350.91 330.40 358.12 C 331.90 363.37 332.67 368.80 334.52 373.95 C 335.95 378.04 336.52 382.33 336.62 386.66 C 338.69 394.77 341.48 402.76 342.37 411.13 C 342.29 416.23 344.47 420.94 345.63 425.83 C 347.86 433.55 348.58 441.57 349.76 449.49 C 352.08 459.46 355.01 469.35 355.90 479.58 C 356.49 486.46 360.26 492.49 361.24 499.28 C 361.90 505.23 364.69 510.64 365.88 516.48 C 366.80 520.03 367.62 524.25 371.13 526.19 C 378.25 530.24 386.92 528.64 394.21 532.23 C 398.51 534.29 403.26 535.00 407.70 536.66 C 412.47 538.80 416.22 542.58 420.35 545.71 C 423.46 548.52 426.99 551.24 428.62 555.25 C 430.76 560.44 433.97 565.32 434.30 571.09 C 434.29 575.37 435.20 579.97 433.18 583.96 C 431.63 587.09 429.57 589.96 428.40 593.28 C 428.36 593.34 428.27 593.44 428.22 593.49 C 423.91 595.15 419.75 598.10 414.90 597.38 C 404.22 596.41 393.69 599.08 383.02 598.59 C 373.55 598.26 364.49 602.00 355.02 601.64 C 347.97 601.50 340.89 601.59 333.93 602.86 C 323.76 604.70 313.43 605.15 303.18 606.29 C 295.81 607.02 288.38 606.12 281.03 607.09 C 274.56 607.93 268.00 607.71 261.60 606.50 C 252.36 604.72 242.82 606.84 233.68 604.37 C 229.35 603.28 224.88 603.71 220.48 603.36 C 214.93 602.80 209.65 600.33 204.00 600.73 C 200.78 600.92 197.58 601.33 194.36 601.31 C 194.43 599.16 194.47 597.01 194.59 594.88 C 195.20 592.77 197.85 591.89 199.60 590.78 C 205.46 587.80 211.17 583.67 218.02 583.63 C 225.21 584.42 229.98 590.74 236.74 592.58 C 247.70 593.17 258.70 592.72 269.67 592.66 C 275.67 592.92 281.34 590.44 287.32 590.48 C 302.76 588.27 318.24 586.45 333.76 585.26 C 342.06 584.35 349.90 581.29 358.18 580.26 C 361.96 579.15 365.47 577.20 368.66 574.90 C 368.99 572.69 368.87 570.45 368.87 568.24 C 367.24 568.29 365.62 568.40 364.00 568.55 C 346.50 571.50 328.59 567.80 311.13 571.13 C 303.21 572.55 295.14 572.77 287.26 574.38 C 280.61 575.87 273.77 575.51 267.03 576.28 C 258.40 576.88 249.74 576.85 241.10 576.72 C 233.94 576.80 227.92 572.11 220.91 571.38 C 215.51 570.38 209.96 571.24 204.58 570.30 C 199.66 568.64 195.57 564.51 190.08 564.67 C 182.37 564.61 174.61 565.01 166.95 563.85 C 162.51 563.03 158.44 565.42 155.05 567.99 C 148.69 572.89 141.69 576.98 134.34 580.21 C 127.81 582.59 121.48 585.46 115.07 588.14 C 108.83 590.69 103.33 594.82 96.86 596.85 C 86.25 600.10 75.85 604.11 64.90 606.11 C 56.07 608.42 46.69 607.18 37.97 610.01 C 33.34 611.30 29.04 614.15 24.08 613.93 C 20.14 613.98 16.43 611.97 12.48 612.48 C 18.79 609.46 24.22 604.66 30.93 602.38 C 35.53 600.89 39.18 597.37 43.96 596.30 C 48.63 595.11 52.01 590.82 57.01 590.65 C 61.32 590.50 65.68 590.03 69.79 588.67 C 75.92 586.05 82.86 585.74 88.60 582.13 C 94.69 579.40 100.63 576.08 105.10 571.01 C 107.80 567.44 112.67 566.87 115.65 563.65 C 118.95 560.26 121.21 556.01 124.61 552.71 C 127.47 550.12 130.61 547.83 133.28 545.03 C 134.09 542.87 133.65 540.44 133.86 538.19 C 131.76 538.53 129.76 539.25 127.76 539.95 C 125.49 540.69 123.21 541.59 120.78 541.66 C 118.08 537.60 116.89 532.78 114.53 528.54 C 112.42 524.54 108.94 521.38 107.35 517.10 C 105.94 513.37 104.79 509.54 103.30 505.84 C 102.04 501.75 101.06 497.31 102.29 493.09 C 103.16 485.77 102.34 478.36 102.90 471.03 C 103.81 467.47 103.66 463.78 103.71 460.14 C 105.02 449.43 105.49 438.56 108.34 428.08 C 108.46 423.03 109.63 418.10 109.64 413.05 C 110.29 405.20 112.60 397.63 114.35 389.99 C 115.16 382.09 116.12 374.16 118.61 366.58 C 120.70 360.44 120.68 353.62 123.92 347.89 C 127.38 346.27 131.22 345.43 135.05 345.61 C 139.45 345.94 143.09 342.97 146.68 340.86 C 155.82 333.78 165.26 325.77 169.01 314.42 C 171.42 309.25 170.47 303.48 170.71 297.99 C 170.60 294.70 171.02 291.31 170.08 288.12 C 168.16 281.99 164.41 276.69 161.24 271.17 C 158.44 266.32 153.19 263.85 149.61 259.75 C 148.89 256.51 150.27 253.16 150.59 249.91 C 151.27 244.26 154.91 239.63 156.22 234.17 C 157.60 228.26 161.27 223.27 164.94 218.57 C 166.67 216.40 167.12 213.61 168.05 211.06 C 169.14 207.50 171.60 204.57 172.83 201.06 C 176.25 190.59 182.55 181.33 185.83 170.81 C 189.64 162.74 193.36 154.63 197.27 146.60 C 200.07 140.92 204.79 136.49 207.53 130.76 C 209.65 125.98 214.30 123.22 217.62 119.39 C 224.43 110.95 230.81 102.13 238.47 94.42 C 242.05 90.96 244.88 86.45 249.57 84.36 C 256.78 81.17 261.03 74.18 264.97 67.73 C 267.12 64.44 267.02 59.95 270.19 57.31 C 273.18 54.56 275.61 51.26 278.63 48.55 M 287.36 397.22 C 281.19 396.99 274.51 397.06 269.68 401.52 C 265.32 406.70 263.32 413.32 260.70 419.45 C 258.93 423.59 255.54 427.32 250.99 428.27 C 245.26 428.38 239.52 428.08 233.79 428.28 C 228.49 428.06 223.46 430.09 218.61 431.95 C 210.11 436.87 204.65 445.72 201.51 454.79 C 201.11 463.31 201.03 471.89 201.47 480.42 C 202.83 484.33 205.39 487.74 208.00 490.92 C 214.16 497.19 222.42 500.56 230.08 504.57 C 232.05 505.50 234.03 506.70 236.30 506.62 C 244.56 506.92 252.83 506.79 261.10 506.72 C 265.81 506.87 270.34 505.38 275.05 505.33 C 281.91 503.49 289.11 501.67 294.65 496.94 C 299.76 493.46 302.77 487.96 306.46 483.17 C 311.73 476.00 315.31 467.79 318.45 459.53 C 319.06 446.27 318.91 432.95 318.55 419.69 C 317.62 414.91 315.91 410.11 313.16 406.07 C 309.91 402.58 305.80 399.99 301.74 397.56 C 296.98 396.95 292.15 397.28 287.36 397.22 Z" />
</g>
<g id="#a58389ff">
<path fill="#a58389" opacity="1.00" d=" M 402.30 62.18 C 403.93 61.27 405.56 60.35 407.18 59.40 C 408.48 60.36 409.82 61.28 411.03 62.37 C 411.62 65.37 410.47 68.44 409.94 71.39 C 405.45 71.17 404.08 65.55 402.30 62.18 Z" />
<path fill="#a58389" opacity="1.00" d=" M 341.98 353.94 C 343.80 357.27 345.84 360.50 347.24 364.04 C 348.96 368.38 349.51 373.05 350.88 377.50 C 356.57 392.80 358.66 409.11 363.47 424.67 C 366.08 432.43 365.42 440.91 368.66 448.49 C 371.67 455.48 371.77 463.30 374.81 470.29 C 377.39 476.40 378.09 483.04 379.87 489.38 C 380.66 492.06 383.02 495.65 386.28 494.37 C 389.86 492.25 391.83 488.37 393.75 484.83 C 396.97 478.28 400.39 471.57 400.98 464.16 C 402.31 454.35 400.29 444.37 402.10 434.62 C 403.91 436.30 405.12 438.53 405.22 441.04 C 406.08 454.03 404.12 467.28 407.35 480.05 C 409.83 489.49 411.83 499.17 411.52 508.98 C 412.22 515.21 412.84 521.46 412.53 527.75 C 408.30 527.78 404.25 526.52 400.46 524.76 C 392.75 521.20 383.81 520.42 375.59 522.49 C 372.80 518.45 373.61 513.62 374.21 509.09 C 372.88 504.99 369.44 501.64 369.50 497.10 C 369.06 488.95 366.93 481.07 364.46 473.34 C 362.37 467.19 364.73 460.47 362.40 454.39 C 361.07 450.55 359.56 446.73 358.95 442.69 C 357.95 435.82 358.08 428.69 355.70 422.08 C 353.41 415.63 351.71 408.90 351.50 402.03 C 351.45 395.68 348.08 390.08 346.72 384.01 C 345.51 379.13 345.76 373.91 343.60 369.27 C 341.83 364.44 338.85 358.89 341.98 353.94 Z" />
<path fill="#a58389" opacity="1.00" d=" M 103.30 505.84 C 104.79 509.54 105.94 513.37 107.35 517.10 C 108.94 521.38 112.42 524.54 114.53 528.54 C 116.89 532.78 118.08 537.60 120.78 541.66 C 123.21 541.59 125.49 540.69 127.76 539.95 C 127.72 546.25 119.74 546.23 116.96 550.77 C 115.33 552.33 114.77 555.90 111.99 555.46 C 108.78 555.02 106.66 551.77 106.33 548.72 C 105.42 542.25 104.53 535.75 104.36 529.21 C 103.95 523.41 102.15 517.82 101.63 512.04 C 101.33 509.81 102.49 507.81 103.30 505.84 Z" />
<path fill="#a58389" opacity="1.00" d=" M 155.05 567.99 C 158.44 565.42 162.51 563.03 166.95 563.85 C 174.61 565.01 182.37 564.61 190.08 564.67 C 195.57 564.51 199.66 568.64 204.58 570.30 C 209.96 571.24 215.51 570.38 220.91 571.38 C 227.92 572.11 233.94 576.80 241.10 576.72 C 249.74 576.85 258.40 576.88 267.03 576.28 C 273.77 575.51 280.61 575.87 287.26 574.38 C 295.14 572.77 303.21 572.55 311.13 571.13 C 328.59 567.80 346.50 571.50 364.00 568.55 C 361.17 572.83 355.75 573.22 351.12 573.57 C 345.47 573.88 340.02 575.47 334.54 576.74 C 329.95 577.85 325.20 577.32 320.54 577.85 C 311.16 579.18 301.56 577.50 292.25 579.61 C 279.70 582.38 266.93 585.00 254.00 584.57 C 248.95 584.41 243.73 585.15 238.85 583.48 C 232.88 581.75 228.12 577.03 221.80 576.32 C 218.23 575.48 214.61 576.36 211.01 576.39 C 207.96 576.48 204.68 576.37 202.03 578.17 C 197.02 581.35 192.03 584.66 187.70 588.75 C 183.90 592.04 180.71 596.05 176.56 598.92 C 174.81 600.47 172.69 598.81 170.89 598.27 C 166.19 595.99 160.23 596.48 156.66 592.12 C 161.46 584.43 170.96 581.61 176.18 574.31 C 177.55 571.86 174.13 570.53 172.42 569.66 C 168.52 568.31 165.24 571.08 162.74 573.71 C 159.09 577.61 153.91 579.45 149.96 582.99 C 146.56 585.98 142.04 587.05 138.24 589.39 C 128.00 596.67 117.87 604.39 106.28 609.46 C 100.14 612.07 93.89 615.42 86.98 614.62 C 79.99 613.94 73.78 617.80 67.00 618.66 C 63.44 619.14 59.94 619.97 56.49 621.00 C 52.43 622.29 48.18 620.83 44.04 621.44 C 37.35 622.67 30.93 625.78 24.02 625.54 C 19.65 624.79 15.45 622.74 12.05 619.92 C 9.66 618.03 9.88 614.09 12.48 612.48 C 16.43 611.97 20.14 613.98 24.08 613.93 C 29.04 614.15 33.34 611.30 37.97 610.01 C 46.69 607.18 56.07 608.42 64.90 606.11 C 75.85 604.11 86.25 600.10 96.86 596.85 C 103.33 594.82 108.83 590.69 115.07 588.14 C 121.48 585.46 127.81 582.59 134.34 580.21 C 141.69 576.98 148.69 572.89 155.05 567.99 Z" />
<path fill="#a58389" opacity="1.00" d=" M 428.22 593.49 C 428.27 593.44 428.36 593.34 428.40 593.28 C 428.36 593.34 428.27 593.44 428.22 593.49 Z" />
<path fill="#a58389" opacity="1.00" d=" M 414.90 597.38 C 419.75 598.10 423.91 595.15 428.22 593.49 C 423.87 600.85 417.15 606.63 409.63 610.54 C 405.36 611.81 401.88 614.63 397.96 616.59 C 393.96 615.78 390.39 613.11 386.17 613.43 C 380.45 613.64 375.06 615.90 369.40 616.60 C 364.37 617.55 359.21 617.27 354.20 618.27 C 347.38 619.30 341.00 622.65 333.98 622.40 C 328.28 622.23 322.69 623.62 317.00 623.52 C 298.02 623.50 279.02 623.74 260.05 623.39 C 249.96 621.66 239.68 623.50 229.58 621.93 C 225.67 621.35 221.72 621.78 217.80 621.51 C 209.53 620.75 201.31 619.22 192.99 619.47 C 189.23 619.44 184.92 619.77 181.89 617.11 C 180.47 615.69 179.03 613.53 180.08 611.50 C 181.67 605.67 186.26 601.50 190.44 597.45 C 191.62 596.30 193.12 595.57 194.59 594.88 C 194.47 597.01 194.43 599.16 194.36 601.31 C 197.58 601.33 200.78 600.92 204.00 600.73 C 209.65 600.33 214.93 602.80 220.48 603.36 C 224.88 603.71 229.35 603.28 233.68 604.37 C 242.82 606.84 252.36 604.72 261.60 606.50 C 268.00 607.71 274.56 607.93 281.03 607.09 C 288.38 606.12 295.81 607.02 303.18 606.29 C 313.43 605.15 323.76 604.70 333.93 602.86 C 340.89 601.59 347.97 601.50 355.02 601.64 C 364.49 602.00 373.55 598.26 383.02 598.59 C 393.69 599.08 404.22 596.41 414.90 597.38 Z" />
<path fill="#a58389" opacity="1.00" d=" M 140.37 597.39 C 145.55 595.48 151.60 596.74 155.86 600.21 C 159.31 603.12 163.96 603.13 168.17 603.99 C 171.00 604.16 172.49 607.33 172.30 609.86 C 169.92 614.82 163.68 614.38 159.06 614.35 C 151.93 613.93 145.97 618.88 139.03 619.53 C 134.26 619.52 129.75 617.52 124.97 617.37 C 121.79 617.53 121.09 613.58 120.78 611.16 C 123.32 606.95 128.31 605.60 132.37 603.36 C 135.34 601.80 137.38 598.91 140.37 597.39 Z" />
</g>
</svg>
